<svg id="SvgjsSvg1001" width="288" height="288" xmlns="http://www.w3.org/2000/svg" version="1.1" xmlns:xlink="http://www.w3.org/1999/xlink" xmlns:svgjs="http://svgjs.com/svgjs"><defs id="SvgjsDefs1002"></defs><g id="SvgjsG1008" transform="matrix(1,0,0,1,0,0)"><svg xmlns="http://www.w3.org/2000/svg" width="288" height="288" fill="none" viewBox="0 0 64 64"><path fill="#0ce7a8" d="M32 21C30.0132 21.0006 28.0636 21.5394 26.3583 22.5591C24.6531 23.5787 23.2559 25.0412 22.315 26.7912C21.3742 28.5412 20.9249 30.5133 21.0149 32.4981C21.1049 34.4829 21.7307 36.4063 22.826 38.064C22.8947 38.1811 22.9865 38.283 23.0959 38.3634C23.2052 38.4439 23.3298 38.5013 23.4621 38.532C23.5943 38.5628 23.7314 38.5663 23.865 38.5423C23.9987 38.5183 24.126 38.4674 24.2393 38.3927C24.3526 38.3179 24.4495 38.2208 24.5241 38.1074C24.5987 37.9939 24.6494 37.8665 24.6731 37.7328C24.6969 37.5992 24.6932 37.4621 24.6622 37.3299C24.6312 37.1977 24.5737 37.0732 24.493 36.964C23.2622 35.1017 22.7666 32.8487 23.1025 30.6418C23.4383 28.4349 24.5817 26.4313 26.3108 25.0195C28.04 23.6077 30.2317 22.8882 32.4612 23.0005C34.6907 23.1128 36.7991 24.049 38.3776 25.6275C39.956 27.206 40.8922 29.3143 41.0045 31.5438C41.1169 33.7733 40.3974 35.9651 38.9855 37.6942C37.5737 39.4234 35.5701 40.5667 33.3632 40.9026C31.1563 41.2384 28.9033 40.7429 27.041 39.512C26.9316 39.4387 26.8087 39.3878 26.6796 39.3621C26.5504 39.3364 26.4174 39.3365 26.2882 39.3624C26.1591 39.3883 26.0363 39.4394 25.927 39.5129C25.8177 39.5863 25.7239 39.6806 25.6512 39.7904C25.5784 39.9002 25.528 40.0233 25.5029 40.1526C25.4779 40.2819 25.4786 40.4149 25.5051 40.5439C25.5315 40.6729 25.5832 40.7955 25.6572 40.9044C25.7311 41.0134 25.8259 41.1067 25.936 41.179C27.3672 42.1241 28.9995 42.7215 30.7026 42.9235C32.4058 43.1254 34.1325 42.9263 35.745 42.3421C37.3575 41.7579 38.8111 40.8047 39.9896 39.5586C41.1681 38.3126 42.0389 36.8083 42.5325 35.1658C43.0261 33.5233 43.1288 31.7881 42.8323 30.0988C42.5359 28.4096 41.8486 26.813 40.8253 25.4367C39.802 24.0604 38.471 22.9424 36.9387 22.172C35.4063 21.4017 33.7151 21.0003 32 21Z" class="color000 svgShape"></path><path fill="#0ce7a8" d="M29.5 25C29.2348 25 28.9804 25.1054 28.7929 25.2929 28.6054 25.4804 28.5 25.7348 28.5 26V38C28.5 38.2652 28.6054 38.5196 28.7929 38.7071 28.9804 38.8946 29.2348 39 29.5 39 29.7652 39 30.0196 38.8946 30.2071 38.7071 30.3946 38.5196 30.5 38.2652 30.5 38V37H32.5V38C32.5 38.2652 32.6054 38.5196 32.7929 38.7071 32.9804 38.8946 33.2348 39 33.5 39 33.7652 39 34.0196 38.8946 34.2071 38.7071 34.3946 38.5196 34.5 38.2652 34.5 38V36.816C34.9656 36.6549 35.3839 36.3806 35.7172 36.0177 36.0505 35.6548 36.2883 35.2148 36.4093 34.7371 36.5303 34.2595 36.5307 33.7593 36.4103 33.2815 36.29 32.8037 36.0528 32.3633 35.72 32 36.0528 31.6367 36.29 31.1963 36.4103 30.7185 36.5307 30.2407 36.5303 29.7405 36.4093 29.2629 36.2883 28.7852 36.0505 28.3452 35.7172 27.9823 35.3839 27.6194 34.9656 27.3451 34.5 27.184V26C34.5 25.7348 34.3946 25.4804 34.2071 25.2929 34.0196 25.1054 33.7652 25 33.5 25 33.2348 25 32.9804 25.1054 32.7929 25.2929 32.6054 25.4804 32.5 25.7348 32.5 26V27H30.5V26C30.5 25.7348 30.3946 25.4804 30.2071 25.2929 30.0196 25.1054 29.7652 25 29.5 25zM33.5 35H30.5V33H33.5C33.7652 33 34.0196 33.1054 34.2071 33.2929 34.3946 33.4804 34.5 33.7348 34.5 34 34.5 34.2652 34.3946 34.5196 34.2071 34.7071 34.0196 34.8946 33.7652 35 33.5 35zM33.5 29C33.7652 29 34.0196 29.1054 34.2071 29.2929 34.3946 29.4804 34.5 29.7348 34.5 30 34.5 30.2652 34.3946 30.5196 34.2071 30.7071 34.0196 30.8946 33.7652 31 33.5 31H30.5V29H33.5zM38 33C38.5523 33 39 32.5523 39 32 39 31.4477 38.5523 31 38 31 37.4477 31 37 31.4477 37 32 37 32.5523 37.4477 33 38 33zM26 33C26.5523 33 27 32.5523 27 32 27 31.4477 26.5523 31 26 31 25.4477 31 25 31.4477 25 32 25 32.5523 25.4477 33 26 33z" class="color000 svgShape"></path><path fill="#0ce7a8" d="M59.515 23.857C59.6629 23.7681 59.7853 23.6425 59.8703 23.4923C59.9553 23.3422 60 23.1726 60 23V18C60 17.8274 59.9553 17.6578 59.8703 17.5077C59.7853 17.3575 59.6629 17.2319 59.515 17.143L54.515 14.143C54.3595 14.0496 54.1814 14.0002 54 14.0002C53.8186 14.0002 53.6405 14.0496 53.485 14.143L48.993 16.843L38 10.426V6C38 5.82745 37.9553 5.65784 37.8703 5.50767C37.7853 5.35749 37.6629 5.23187 37.515 5.143L35.508 3.943C35.2806 3.80655 35.0083 3.76603 34.751 3.83035C34.4937 3.89468 34.2725 4.05858 34.136 4.286C33.9995 4.51343 33.959 4.78574 34.0233 5.04304C34.0877 5.30034 34.2516 5.52155 34.479 5.658L35.056 6L32 7.834L28.944 6L32.515 3.857C32.7372 3.71797 32.8959 3.49727 32.957 3.2424C33.0181 2.98753 32.9767 2.71887 32.8417 2.49422C32.7067 2.26957 32.4889 2.1069 32.2351 2.04122C31.9814 1.97553 31.712 2.01208 31.485 2.143L26.485 5.143C26.3371 5.23187 26.2147 5.35749 26.1297 5.50767C26.0447 5.65784 26 5.82745 26 6V10.426L15.007 16.838L10.515 14.143C10.3595 14.0496 10.1814 14.0002 10 14.0002C9.81856 14.0002 9.64053 14.0496 9.485 14.143L4.485 17.143C4.33709 17.2319 4.21469 17.3575 4.1297 17.5077C4.04472 17.6578 4.00003 17.8274 4 18V23C4.00003 23.1726 4.04472 23.3422 4.1297 23.4923C4.21469 23.6425 4.33709 23.7681 4.485 23.857L9 26.566V37.434L4.485 40.143C4.33709 40.2319 4.21469 40.3575 4.1297 40.5077C4.04472 40.6578 4.00003 40.8275 4 41V46C4.00003 46.1726 4.04472 46.3422 4.1297 46.4923C4.21469 46.6425 4.33709 46.7681 4.485 46.857L9.485 49.857C9.64053 49.9504 9.81856 49.9998 10 49.9998C10.1814 49.9998 10.3595 49.9504 10.515 49.857L15.007 47.162L26 53.574V58C26 58.1726 26.0447 58.3422 26.1297 58.4923C26.2147 58.6425 26.3371 58.7681 26.485 58.857L31.485 61.857C31.6405 61.9504 31.8186 61.9998 32 61.9998C32.1814 61.9998 32.3595 61.9504 32.515 61.857L37.515 58.857C37.6629 58.7681 37.7853 58.6425 37.8703 58.4923C37.9553 58.3422 38 58.1726 38 58V53.574L48.993 47.162L53.485 49.862C53.6371 49.9534 53.8107 50.0026 53.9881 50.0047C54.1656 50.0069 54.3403 49.9617 54.4945 49.874C54.6488 49.7862 54.7768 49.659 54.8657 49.5055C54.9545 49.3519 55.0009 49.1774 55 49V44.566L58 42.766V45.434L57.319 45.842C57.2064 45.9096 57.1082 45.9988 57.0301 46.1044C56.9519 46.2099 56.8953 46.3299 56.8635 46.4573C56.8317 46.5848 56.8253 46.7172 56.8447 46.8471C56.8641 46.9771 56.9089 47.1019 56.9765 47.2145C57.0441 47.3271 57.1333 47.4253 57.2389 47.5035C57.3444 47.5816 57.4644 47.6382 57.5918 47.67C57.7193 47.7018 57.8517 47.7082 57.9816 47.6888C58.1116 47.6694 58.2364 47.6246 58.349 47.557L59.515 46.857C59.6629 46.7681 59.7853 46.6425 59.8703 46.4923C59.9553 46.3422 60 46.1726 60 46V41C60 40.8275 59.9553 40.6578 59.8703 40.5077C59.7853 40.3575 59.6629 40.2319 59.515 40.143L55 37.434V26.566L59.515 23.857ZM32 54.834L28.944 53L32 51.166L35.056 53L32 54.834ZM10 42.834L6.944 41L10 39.166L13.056 41L10 42.834ZM26.993 12.162L31 14.566V17.051C28.5695 17.2151 26.2156 17.9691 24.1421 19.2477C22.0686 20.5263 20.338 22.291 19.1 24.389L16 22.447V18.574L26.993 12.162ZM37.007 12.162L48 18.574V22.445L44.9 24.38C44.6241 23.9134 44.3237 23.4618 44 23.027C43.8409 22.8148 43.604 22.6746 43.3414 22.6371C43.0789 22.5995 42.8122 22.6679 42.6 22.827C42.3878 22.9861 42.2476 23.223 42.21 23.4856C42.1725 23.7481 42.2409 24.0148 42.4 24.227C44.0909 26.4653 45.0039 29.1948 45 32C45 34.5712 44.2376 37.0846 42.8091 39.2224C41.3806 41.3603 39.3503 43.0265 36.9749 44.0104C34.5994 44.9944 31.9856 45.2518 29.4638 44.7502C26.9421 44.2486 24.6257 43.0105 22.8076 41.1924C20.9895 39.3743 19.7514 37.0579 19.2498 34.5362C18.7482 32.0144 19.0056 29.4006 19.9896 27.0251C20.9735 24.6497 22.6397 22.6194 24.7776 21.1909C26.9154 19.7624 29.4288 19 32 19C34.805 18.9972 37.5342 19.9101 39.773 21.6C39.8781 21.6788 39.9976 21.7361 40.1248 21.7687C40.252 21.8013 40.3844 21.8085 40.5144 21.79C40.6444 21.7714 40.7695 21.7274 40.8825 21.6605C40.9955 21.5936 41.0942 21.5051 41.173 21.4C41.2518 21.2949 41.3091 21.1754 41.3417 21.0482C41.3743 20.921 41.3815 20.7886 41.3629 20.6586C41.3444 20.5286 41.3004 20.4035 41.2335 20.2905C41.1666 20.1775 41.0781 20.0788 40.973 20C38.6605 18.2576 35.8893 17.2288 33 17.04V14.566L37.007 12.162ZM53 21.566V24.234L50 22.434V19.766L53 21.566ZM14.989 39.827L11 37.434V26.566L14.989 24.173L18.178 26.173C17.4005 28.0173 16.9999 29.9985 16.9999 32C16.9999 34.0015 17.4005 35.9827 18.178 37.827L14.989 39.827ZM31 12.234L28 10.434V7.766L31 9.566V12.234ZM14 22.434L11 24.234V21.566L14 19.766V22.434ZM16 41.553L19.1 39.611C20.338 41.709 22.0686 43.4737 24.1421 44.7523C26.2156 46.0309 28.5695 46.7849 31 46.949V49.434L26.993 51.834L16 45.426V41.553ZM37.007 51.838L33 49.434V46.949C35.4305 46.7849 37.7844 46.0309 39.8579 44.7523C41.9314 43.4737 43.662 41.709 44.9 39.611L48 41.553V45.426L37.007 51.838ZM45.822 37.827C46.6008 35.9813 47.0014 33.998 47 31.9947C46.9986 29.9914 46.5953 28.0087 45.814 26.164L49.014 24.172L53 26.566V37.434L49.011 39.827L45.822 37.827ZM55 24.234V21.566L58 19.766V22.434L55 24.234ZM54 16.166L57.056 18L54 19.834L50.944 18L54 16.166ZM36 7.766V10.434L33 12.234V9.566L36 7.766ZM10 16.166L13.056 18L10 19.834L6.944 18L10 16.166ZM6 19.766L9 21.566V24.234L6 22.434V19.766ZM6 42.766L9 44.566V47.234L6 45.434V42.766ZM11 47.234V44.566L14 42.766V45.434L11 47.234ZM28 54.766L31 56.566V59.234L28 57.434V54.766ZM33 59.234V56.566L36 54.766V57.434L33 59.234ZM50 45.434V42.766L53 44.566V47.234L50 45.434ZM54 42.834L50.944 41L54 39.166L57.057 41L54 42.834Z" class="color000 svgShape"></path></svg></g></svg>